<?xml version="1.0" encoding="utf-8"?>
<!-- Generator: Adobe Illustrator 15.0.0, SVG Export Plug-In . SVG Version: 6.00 Build 0)  -->
<!DOCTYPE svg PUBLIC "-//W3C//DTD SVG 1.1//EN" "http://www.w3.org/Graphics/SVG/1.1/DTD/svg11.dtd">
<svg version="1.1" id="Layer_1" xmlns="http://www.w3.org/2000/svg" xmlns:xlink="http://www.w3.org/1999/xlink" x="0px" y="0px"
	 width="260.25px" height="82.431px" viewBox="0 0 260.25 82.431" enable-background="new 0 0 260.25 82.431" xml:space="preserve">
<g>
	<rect x="-5.916" fill="none" width="305" height="102.181"/>
	<path fill="#FFFFFF" d="M16.357,67.595c-3.096-0.058-5.662-0.402-7.696-1.031c-2.036-0.631-3.655-1.533-4.859-2.709
		s-2.05-2.637-2.536-4.387c-0.488-1.748-0.731-3.74-0.731-5.977V1.719l10.405-1.72v51.514c0,1.262,0.1,2.322,0.302,3.182
		c0.2,0.86,0.559,1.592,1.075,2.193c0.516,0.602,1.217,1.062,2.106,1.376c0.888,0.315,2.021,0.56,3.397,0.731L16.357,67.595z"/>
	<path fill="#FFFFFF" d="M37.857,8.599c0,1.95-0.631,3.498-1.892,4.645c-1.262,1.147-2.752,1.72-4.472,1.72
		c-1.777,0-3.298-0.572-4.559-1.72c-1.262-1.146-1.892-2.694-1.892-4.645c0-2.006,0.63-3.582,1.892-4.73
		c1.261-1.146,2.781-1.72,4.559-1.72c1.72,0,3.21,0.574,4.472,1.72C37.227,5.017,37.857,6.593,37.857,8.599z M36.74,66.735H26.334
		V21.757H36.74V66.735z"/>
	<path fill="#FFFFFF" d="M49.982,23.219c2.007-0.572,4.615-1.118,7.826-1.634s6.765-0.773,10.664-0.773
		c3.668,0,6.736,0.502,9.202,1.504c2.464,1.004,4.429,2.408,5.892,4.215c1.461,1.806,2.494,3.985,3.096,6.535
		c0.602,2.553,0.902,5.348,0.902,8.385v25.285H77.158v-23.65c0-2.408-0.158-4.457-0.473-6.148c-0.315-1.691-0.832-3.066-1.548-4.129
		c-0.718-1.061-1.691-1.834-2.924-2.322c-1.233-0.486-2.739-0.73-4.515-0.73c-1.32,0-2.695,0.086-4.129,0.258
		s-2.494,0.316-3.182,0.43v36.293H49.982V23.219z"/>
	<path fill="#FFFFFF" d="M110.697,39.301c1.318-1.376,2.723-2.852,4.215-4.429c1.49-1.576,2.952-3.152,4.386-4.73
		c1.433-1.576,2.795-3.096,4.085-4.558s2.394-2.737,3.311-3.827h12.299c-2.861,3.211-5.879,6.536-9.053,9.977
		c-3.174,3.439-6.363,6.793-9.566,10.062c1.716,1.434,3.518,3.169,5.406,5.203c1.888,2.036,3.718,4.2,5.491,6.493
		c1.774,2.293,3.433,4.588,4.978,6.88c1.545,2.294,2.832,4.415,3.861,6.364H128.07c-1.032-1.777-2.223-3.641-3.569-5.59
		c-1.348-1.949-2.795-3.842-4.343-5.677c-1.549-1.834-3.126-3.569-4.73-5.203c-1.605-1.634-3.182-3.023-4.73-4.171v20.641h-10.405
		V1.719l10.405-1.72V39.301z"/>
	<path fill="#FFFFFF" d="M188.184,44.289c0,3.44-0.444,6.594-1.333,9.46c-0.89,2.867-2.165,5.332-3.827,7.396
		c-1.663,2.063-3.741,3.669-6.234,4.815c-2.494,1.146-5.318,1.72-8.471,1.72c-2.123,0-4.072-0.258-5.849-0.773
		c-1.778-0.517-3.239-1.089-4.386-1.721v17.459h-10.406V23.219c2.121-0.572,4.73-1.118,7.826-1.634s6.363-0.773,9.804-0.773
		c3.554,0,6.736,0.545,9.546,1.633c2.809,1.09,5.203,2.653,7.181,4.688c1.979,2.035,3.497,4.502,4.559,7.396
		C187.653,37.424,188.184,40.677,188.184,44.289z M177.52,44.461c0-4.644-1.047-8.256-3.139-10.836
		c-2.094-2.58-5.461-3.87-10.105-3.87c-0.975,0-1.992,0.043-3.053,0.129c-1.062,0.086-2.107,0.273-3.139,0.559v25.715
		c0.916,0.631,2.135,1.219,3.654,1.763c1.52,0.546,3.139,0.817,4.859,0.817c3.784,0,6.549-1.291,8.299-3.871
		C176.645,52.286,177.52,48.819,177.52,44.461z"/>
	<path fill="#FFFFFF" d="M210.544,8.599c0,1.95-0.632,3.498-1.893,4.645c-1.262,1.147-2.752,1.72-4.472,1.72
		c-1.778,0-3.298-0.572-4.559-1.72c-1.262-1.146-1.892-2.694-1.892-4.645c0-2.006,0.63-3.582,1.892-4.73
		c1.261-1.146,2.78-1.72,4.559-1.72c1.72,0,3.21,0.574,4.472,1.72C209.912,5.017,210.544,6.593,210.544,8.599z M209.426,66.735
		H199.02V21.757h10.406V66.735z"/>
	<path fill="#FFFFFF" d="M222.668,23.219c2.006-0.572,4.614-1.118,7.826-1.634c3.21-0.516,6.765-0.773,10.664-0.773
		c3.668,0,6.736,0.502,9.202,1.504c2.464,1.004,4.429,2.408,5.891,4.215c1.462,1.806,2.494,3.985,3.096,6.535
		c0.603,2.553,0.903,5.348,0.903,8.385v25.285h-10.406v-23.65c0-2.408-0.158-4.457-0.473-6.148
		c-0.316-1.691-0.832-3.066-1.548-4.129c-0.718-1.061-1.692-1.834-2.925-2.322c-1.233-0.486-2.738-0.73-4.515-0.73
		c-1.319,0-2.695,0.086-4.128,0.258c-1.434,0.172-2.494,0.316-3.182,0.43v36.293h-10.406V23.219z"/>
</g>
</svg>
