<?xml version="1.0" encoding="utf-8"?>
<!-- Generator: Adobe Illustrator 15.0.0, SVG Export Plug-In . SVG Version: 6.00 Build 0)  -->
<!DOCTYPE svg PUBLIC "-//W3C//DTD SVG 1.1//EN" "http://www.w3.org/Graphics/SVG/1.1/DTD/svg11.dtd">
<svg version="1.1" id="Layer_1" xmlns="http://www.w3.org/2000/svg" xmlns:xlink="http://www.w3.org/1999/xlink" x="0px" y="0px"
	 width="164.25px" height="51px" viewBox="0 0 164.25 51" enable-background="new 0 0 164.25 51" xml:space="preserve">
<g>
	<rect fill="none" width="415" height="224"/>
	<path fill="#FFFFFF" d="M13.727,41.657c-1.908-0.035-3.49-0.248-4.744-0.636c-1.254-0.389-2.252-0.945-2.995-1.669
		c-0.742-0.724-1.264-1.625-1.563-2.703c-0.3-1.077-0.45-2.306-0.45-3.684V1.06L10.388,0v31.747c0,0.777,0.061,1.431,0.186,1.961
		c0.123,0.53,0.344,0.98,0.662,1.352c0.318,0.371,0.75,0.654,1.299,0.848c0.547,0.195,1.245,0.345,2.093,0.451L13.727,41.657z"/>
	<path fill="#FFFFFF" d="M26.977,5.299c0,1.202-0.389,2.156-1.166,2.862c-0.777,0.707-1.696,1.06-2.756,1.06
		c-1.096,0-2.032-0.353-2.809-1.06c-0.777-0.707-1.166-1.661-1.166-2.862c0-1.236,0.389-2.208,1.166-2.915
		c0.777-0.706,1.713-1.06,2.809-1.06c1.06,0,1.979,0.354,2.756,1.06C26.587,3.092,26.977,4.063,26.977,5.299z M26.288,41.127h-6.413
		V13.408h6.413V41.127z"/>
	<path fill="#FFFFFF" d="M34.449,14.31c1.236-0.353,2.844-0.689,4.823-1.007c1.979-0.318,4.169-0.477,6.572-0.477
		c2.261,0,4.151,0.31,5.671,0.927c1.519,0.619,2.729,1.484,3.63,2.597c0.901,1.113,1.537,2.456,1.908,4.028
		c0.371,1.573,0.557,3.295,0.557,5.167v15.582h-6.413V26.552c0-1.484-0.098-2.747-0.292-3.789c-0.195-1.042-0.513-1.89-0.954-2.544
		c-0.442-0.653-1.042-1.13-1.802-1.431c-0.76-0.3-1.688-0.451-2.783-0.451c-0.813,0-1.661,0.053-2.544,0.159
		c-0.884,0.106-1.537,0.194-1.961,0.265v22.366h-6.413V14.31z"/>
	<path fill="#FFFFFF" d="M71.867,24.22c0.812-0.848,1.678-1.757,2.597-2.729c0.918-0.971,1.819-1.942,2.703-2.915
		c0.883-0.972,1.723-1.908,2.518-2.809c0.795-0.901,1.475-1.687,2.041-2.359h7.579c-1.763,1.979-3.623,4.028-5.579,6.148
		c-1.956,2.12-3.921,4.187-5.896,6.201c1.058,0.884,2.168,1.953,3.332,3.207c1.164,1.255,2.292,2.589,3.384,4.001
		c1.093,1.414,2.115,2.827,3.067,4.24c0.953,1.414,1.746,2.721,2.38,3.922h-7.42c-0.636-1.095-1.37-2.243-2.2-3.445
		c-0.831-1.201-1.723-2.367-2.676-3.498c-0.954-1.13-1.926-2.2-2.915-3.207c-0.99-1.007-1.961-1.863-2.915-2.571v12.72h-6.413V1.06
		L71.867,0V24.22z"/>
	<path fill="#FFFFFF" d="M119.619,27.294c0,2.12-0.274,4.063-0.821,5.83c-0.548,1.767-1.334,3.286-2.359,4.558
		c-1.025,1.272-2.305,2.261-3.842,2.968s-3.278,1.06-5.221,1.06c-1.308,0-2.509-0.159-3.604-0.477s-1.997-0.671-2.703-1.06v10.759
		h-6.413V14.31c1.307-0.353,2.915-0.689,4.823-1.007c1.908-0.318,3.922-0.477,6.042-0.477c2.19,0,4.151,0.336,5.883,1.007
		c1.73,0.671,3.207,1.635,4.425,2.888c1.219,1.255,2.155,2.774,2.809,4.558C119.292,23.063,119.619,25.068,119.619,27.294z
		 M113.047,27.4c0-2.862-0.646-5.088-1.935-6.678c-1.291-1.59-3.366-2.385-6.228-2.385c-0.601,0-1.228,0.026-1.881,0.08
		c-0.654,0.053-1.299,0.168-1.935,0.344v15.847c0.564,0.389,1.316,0.751,2.252,1.086c0.936,0.336,1.935,0.503,2.995,0.503
		c2.332,0,4.036-0.795,5.114-2.385C112.508,32.224,113.047,30.086,113.047,27.4z"/>
	<path fill="#FFFFFF" d="M133.398,5.299c0,1.202-0.389,2.156-1.166,2.862c-0.777,0.707-1.696,1.06-2.756,1.06
		c-1.096,0-2.032-0.353-2.809-1.06c-0.777-0.707-1.166-1.661-1.166-2.862c0-1.236,0.389-2.208,1.166-2.915
		c0.777-0.706,1.713-1.06,2.809-1.06c1.06,0,1.979,0.354,2.756,1.06C133.009,3.092,133.398,4.063,133.398,5.299z M132.709,41.127
		h-6.413V13.408h6.413V41.127z"/>
	<path fill="#FFFFFF" d="M140.871,14.31c1.236-0.353,2.844-0.689,4.823-1.007c1.979-0.318,4.169-0.477,6.572-0.477
		c2.261,0,4.151,0.31,5.671,0.927c1.519,0.619,2.729,1.484,3.63,2.597c0.901,1.113,1.537,2.456,1.908,4.028
		c0.371,1.573,0.557,3.295,0.557,5.167v15.582h-6.413V26.552c0-1.484-0.098-2.747-0.292-3.789c-0.195-1.042-0.513-1.89-0.954-2.544
		c-0.442-0.653-1.042-1.13-1.802-1.431c-0.76-0.3-1.688-0.451-2.783-0.451c-0.813,0-1.661,0.053-2.544,0.159
		c-0.884,0.106-1.537,0.194-1.961,0.265v22.366h-6.413V14.31z"/>
</g>
</svg>
