<?xml version="1.0" encoding="utf-8"?>
<!-- Generator: Adobe Illustrator 15.0.0, SVG Export Plug-In . SVG Version: 6.00 Build 0)  -->
<!DOCTYPE svg PUBLIC "-//W3C//DTD SVG 1.1//EN" "http://www.w3.org/Graphics/SVG/1.1/DTD/svg11.dtd">
<svg version="1.1" id="Layer_1" xmlns="http://www.w3.org/2000/svg" xmlns:xlink="http://www.w3.org/1999/xlink" x="0px" y="0px"
	 width="1205px" height="1205px" viewBox="0 0 1205 1205" enable-background="new 0 0 1205 1205" xml:space="preserve">
<g>
	<path fill="#1AA19A" d="M870.211,483.275c-7.65-9.968-17.946-17.943-30.905-23.925c-12.958-5.981-29.405-8.972-49.344-8.972
		c-13.299,0-25.917,0.842-37.879,2.493c-11.962,1.666-22.599,3.832-31.896,6.479l-79,328.957c6.648,1.34,13.628,2.165,20.947,2.491
		c7.324,0.344,14.642,0.499,21.963,0.499c31.93,0,60.696-6.136,86.304-18.442c25.608-12.289,47.396-28.906,65.354-49.842
		c17.958-20.933,31.758-45.51,41.416-73.765c9.64-28.238,14.47-58.313,14.47-90.214c0-14.609-1.666-28.409-4.984-41.368
		C883.324,504.708,877.841,493.243,870.211,483.275z"/>
	<path fill="#1AA19A" d="M602.5,0C269.748,0,0,269.748,0,602.5C0,935.25,269.748,1205,602.5,1205c332.75,0,602.5-269.75,602.5-602.5
		C1205,269.748,935.25,0,602.5,0z M331.624,850.112c-12.959-12.618-22.272-27.57-27.912-44.857
		c-5.653-17.273-8.472-36.213-8.472-56.819c0-21.262,2.491-43.692,7.476-67.287c4.985-23.583,10.466-47.007,16.447-70.277
		l115.633-482.469l125.601-19.937c-20.747,87.067-41.507,173.621-62.254,259.676c-20.747,86.071-41.836,172.624-63.253,259.675
		c-3.146,13.957-6.62,27.757-10.389,41.37c-3.77,13.629-5.655,27.086-5.655,40.371c0,11.309,0.156,21.774,0.498,31.4
		c0.328,9.643,2.991,17.943,7.975,24.921c4.985,6.978,12.461,12.804,22.43,17.445c9.967,4.658,22.925,7.647,38.876,8.973
		l-25.917,99.684c-31.246-0.67-57.661-4.658-79.249-11.962C361.856,872.71,344.583,862.744,331.624,850.112z M989.828,681.148
		c-14.952,41.539-36.883,77.924-65.79,109.152c-28.906,31.246-64.14,55.995-105.665,74.265
		c-41.542,18.27-89.216,27.415-143.046,27.415c-9.313,0-18.782-0.498-28.408-1.497c-9.643-0.997-19.114-2.165-28.411-3.487
		l-44.11,179.431H454.029l164.479-684.828c27.243-9.968,57.644-17.942,91.212-23.923c33.55-5.981,67.284-8.972,101.178-8.972
		c34.547,0,64.622,5.155,90.212,15.451c25.576,10.31,46.509,24.422,62.8,42.365c16.28,17.943,28.411,39.049,36.385,63.3
		c7.977,24.267,11.962,50.34,11.962,78.251C1012.258,595.264,1004.782,639.622,989.828,681.148z"/>
</g>
</svg>
